<svg xmlns="http://www.w3.org/2000/svg" viewBox="0 0 432 72" width="432" height="72">
<rect x="108" y="0" width="48" height="12" fill="#a7d129"/>
<rect x="192" y="0" width="12" height="12" fill="#a7d129"/>
<rect x="240" y="0" width="12" height="12" fill="#a7d129"/>
<rect x="288" y="0" width="12" height="12" fill="#a7d129"/>
<rect x="408" y="0" width="24" height="12" fill="#a7d129"/>
<rect x="84" y="12" width="324" height="12" fill="#a7d129"/>
<rect x="24" y="24" width="72" height="12" fill="#a7d129"/>
<rect x="108" y="24" width="264" height="12" fill="#a7d129"/>
<rect x="24" y="36" width="12" height="12" fill="#a7d129"/>
<rect x="36" y="36" width="12" height="12" fill="#f7f0d0"/>
<rect x="48" y="36" width="12" height="12" fill="#a7d129"/>
<rect x="60" y="36" width="12" height="12" fill="#f7f0d0"/>
<rect x="72" y="36" width="12" height="12" fill="#a7d129"/>
<rect x="84" y="36" width="12" height="12" fill="#f7f0d0"/>
<rect x="96" y="36" width="264" height="12" fill="#a7d129"/>
<rect x="60" y="48" width="264" height="12" fill="#a7d129"/>
<rect x="96" y="60" width="24" height="12" fill="#a7d129"/>
<rect x="156" y="60" width="24" height="12" fill="#a7d129"/>
<rect x="240" y="60" width="24" height="12" fill="#a7d129"/>
<rect x="288" y="60" width="24" height="12" fill="#a7d129"/>
</svg>
