<svg xmlns="http://www.w3.org/2000/svg" viewBox="0 0 128 80" width="128" height="80"><rect width="128" height="80" rx="23" fill="#0d0e0b"/><rect x="52" y="12" width="8" height="8" fill="#a7d129"/><rect x="60" y="12" width="8" height="8" fill="#a7d129"/><rect x="68" y="12" width="8" height="8" fill="#a7d129"/><rect x="76" y="12" width="8" height="8" fill="#a7d129"/><rect x="36" y="20" width="8" height="8" fill="#a7d129"/><rect x="44" y="20" width="8" height="8" fill="#a7d129"/><rect x="52" y="20" width="8" height="8" fill="#a7d129"/><rect x="60" y="20" width="8" height="8" fill="#a7d129"/><rect x="68" y="20" width="8" height="8" fill="#a7d129"/><rect x="76" y="20" width="8" height="8" fill="#a7d129"/><rect x="92" y="20" width="8" height="8" fill="#a7d129"/><rect x="100" y="20" width="8" height="8" fill="#a7d129"/><rect x="20" y="28" width="8" height="8" fill="#a7d129"/><rect x="28" y="28" width="8" height="8" fill="#a7d129"/><rect x="36" y="28" width="8" height="8" fill="#a7d129"/><rect x="44" y="28" width="8" height="8" fill="#a7d129"/><rect x="52" y="28" width="8" height="8" fill="#a7d129"/><rect x="60" y="28" width="8" height="8" fill="#a7d129"/><rect x="68" y="28" width="8" height="8" fill="#a7d129"/><rect x="76" y="28" width="8" height="8" fill="#a7d129"/><rect x="84" y="28" width="8" height="8" fill="#a7d129"/><rect x="92" y="28" width="8" height="8" fill="#a7d129"/><rect x="100" y="28" width="8" height="8" fill="#a7d129"/><rect x="12" y="36" width="8" height="8" fill="#a7d129"/><rect x="20" y="36" width="8" height="8" fill="#a7d129"/><rect x="28" y="36" width="8" height="8" fill="#a7d129"/><rect x="36" y="36" width="8" height="8" fill="#a7d129"/><rect x="44" y="36" width="8" height="8" fill="#a7d129"/><rect x="52" y="36" width="8" height="8" fill="#a7d129"/><rect x="60" y="36" width="8" height="8" fill="#a7d129"/><rect x="68" y="36" width="8" height="8" fill="#a7d129"/><rect x="76" y="36" width="8" height="8" fill="#a7d129"/><rect x="84" y="36" width="8" height="8" fill="#a7d129"/><rect x="92" y="36" width="8" height="8" fill="#a7d129"/><rect x="100" y="36" width="8" height="8" fill="#a7d129"/><rect x="108" y="36" width="8" height="8" fill="#a7d129"/><rect x="12" y="44" width="8" height="8" fill="#a7d129"/><rect x="28" y="44" width="8" height="8" fill="#a7d129"/><rect x="36" y="44" width="8" height="8" fill="#a7d129"/><rect x="44" y="44" width="8" height="8" fill="#a7d129"/><rect x="52" y="44" width="8" height="8" fill="#a7d129"/><rect x="60" y="44" width="8" height="8" fill="#a7d129"/><rect x="68" y="44" width="8" height="8" fill="#a7d129"/><rect x="76" y="44" width="8" height="8" fill="#a7d129"/><rect x="84" y="44" width="8" height="8" fill="#a7d129"/><rect x="92" y="44" width="8" height="8" fill="#a7d129"/><rect x="100" y="44" width="8" height="8" fill="#a7d129"/><rect x="108" y="44" width="8" height="8" fill="#a7d129"/><rect x="20" y="52" width="8" height="8" fill="#a7d129"/><rect x="28" y="52" width="8" height="8" fill="#a7d129"/><rect x="36" y="52" width="8" height="8" fill="#f7f0d0"/><rect x="44" y="52" width="8" height="8" fill="#a7d129"/><rect x="52" y="52" width="8" height="8" fill="#f7f0d0"/><rect x="60" y="52" width="8" height="8" fill="#a7d129"/><rect x="68" y="52" width="8" height="8" fill="#f7f0d0"/><rect x="76" y="52" width="8" height="8" fill="#a7d129"/><rect x="84" y="52" width="8" height="8" fill="#a7d129"/><rect x="92" y="52" width="8" height="8" fill="#a7d129"/><rect x="100" y="52" width="8" height="8" fill="#a7d129"/><rect x="20" y="60" width="8" height="8" fill="#a7d129"/><rect x="28" y="60" width="8" height="8" fill="#a7d129"/><rect x="60" y="60" width="8" height="8" fill="#a7d129"/><rect x="68" y="60" width="8" height="8" fill="#a7d129"/><rect x="92" y="60" width="8" height="8" fill="#a7d129"/><rect x="100" y="60" width="8" height="8" fill="#a7d129"/></svg>
